<mxfile host="app.diagrams.net" modified="2022-03-21T09:20:35.016Z" agent="5.0 (Windows NT 10.0; Win64; x64) AppleWebKit/537.36 (KHTML, like Gecko) Chrome/99.0.4844.74 Safari/537.36 Edg/99.0.1150.46" etag="9W-uCPRfmATlsmD7T9k3" compressed="false" version="17.1.3" type="device">
  <diagram id="is69iQopaGMd0QR7psZ8" name="Page-1">
    <mxGraphModel dx="1422" dy="768" grid="1" gridSize="10" guides="1" tooltips="1" connect="1" arrows="1" fold="1" page="1" pageScale="1" pageWidth="1100" pageHeight="850" background="none" math="0" shadow="0">
      <root>
        <mxCell id="0" />
        <mxCell id="1" parent="0" />
        <mxCell id="c7QWI__lu-sEi3-24Plo-152" style="edgeStyle=orthogonalEdgeStyle;curved=1;rounded=0;orthogonalLoop=1;jettySize=auto;html=1;entryX=0;entryY=0.25;entryDx=0;entryDy=0;fontSize=10;startArrow=none;startFill=0;endArrow=classicThin;endFill=1;strokeColor=default;entryPerimeter=0;horizontal=1;" edge="1" parent="1">
          <mxGeometry relative="1" as="geometry">
            <mxPoint x="440" y="120" as="sourcePoint" />
            <mxPoint x="260" y="230" as="targetPoint" />
            <Array as="points">
              <mxPoint x="440" y="190" />
              <mxPoint x="230" y="190" />
              <mxPoint x="230" y="230" />
            </Array>
          </mxGeometry>
        </mxCell>
        <mxCell id="c7QWI__lu-sEi3-24Plo-102" style="edgeStyle=orthogonalEdgeStyle;curved=1;rounded=0;orthogonalLoop=1;jettySize=auto;html=1;fontSize=10;startArrow=none;startFill=0;endArrow=classicThin;endFill=1;strokeColor=default;exitX=1;exitY=0.5;exitDx=0;exitDy=0;" edge="1" parent="1" source="c7QWI__lu-sEi3-24Plo-66" target="c7QWI__lu-sEi3-24Plo-96">
          <mxGeometry relative="1" as="geometry" />
        </mxCell>
        <mxCell id="c7QWI__lu-sEi3-24Plo-64" value="Oven&lt;br&gt;Reset&lt;br&gt;S&lt;sub&gt;1&lt;/sub&gt;" style="ellipse;whiteSpace=wrap;html=1;aspect=fixed;rotation=0;" vertex="1" parent="1">
          <mxGeometry x="140" y="80" width="80" height="80" as="geometry" />
        </mxCell>
        <mxCell id="c7QWI__lu-sEi3-24Plo-67" style="edgeStyle=orthogonalEdgeStyle;curved=1;rounded=0;orthogonalLoop=1;jettySize=auto;html=1;exitX=1;exitY=0.5;exitDx=0;exitDy=0;entryX=0;entryY=0.5;entryDx=0;entryDy=0;startArrow=none;startFill=0;endArrow=classicThin;endFill=1;strokeColor=default;" edge="1" parent="1" source="c7QWI__lu-sEi3-24Plo-66" target="c7QWI__lu-sEi3-24Plo-64">
          <mxGeometry relative="1" as="geometry" />
        </mxCell>
        <mxCell id="c7QWI__lu-sEi3-24Plo-65" value="Turn Table&lt;br&gt;Reset&lt;br&gt;S&lt;sub&gt;&lt;font style=&quot;font-size: 10px&quot;&gt;3&lt;/font&gt;&lt;/sub&gt;" style="ellipse;whiteSpace=wrap;html=1;aspect=fixed;rotation=0;" vertex="1" parent="1">
          <mxGeometry x="140" y="320" width="80" height="80" as="geometry" />
        </mxCell>
        <mxCell id="c7QWI__lu-sEi3-24Plo-68" style="edgeStyle=orthogonalEdgeStyle;curved=1;rounded=0;orthogonalLoop=1;jettySize=auto;html=1;exitX=1;exitY=0.5;exitDx=0;exitDy=0;entryX=0;entryY=0.5;entryDx=0;entryDy=0;startArrow=none;startFill=0;endArrow=classicThin;endFill=1;strokeColor=default;" edge="1" parent="1" source="c7QWI__lu-sEi3-24Plo-66" target="c7QWI__lu-sEi3-24Plo-65">
          <mxGeometry relative="1" as="geometry" />
        </mxCell>
        <mxCell id="c7QWI__lu-sEi3-24Plo-66" value="Initial&lt;br&gt;Positions&lt;br&gt;S&lt;sub&gt;0&lt;/sub&gt;" style="ellipse;whiteSpace=wrap;html=1;aspect=fixed;rotation=0;" vertex="1" parent="1">
          <mxGeometry y="200" width="80" height="80" as="geometry" />
        </mxCell>
        <mxCell id="c7QWI__lu-sEi3-24Plo-77" value="Oven&lt;br&gt;Load&lt;br&gt;S&lt;span style=&quot;font-size: 8.33333px&quot;&gt;&lt;sub style=&quot;font-size: 10px&quot;&gt;4&lt;/sub&gt;&lt;/span&gt;" style="ellipse;whiteSpace=wrap;html=1;aspect=fixed;rotation=0;" vertex="1" parent="1">
          <mxGeometry x="320" y="80" width="80" height="80" as="geometry" />
        </mxCell>
        <mxCell id="c7QWI__lu-sEi3-24Plo-82" value="0.25s after&lt;br&gt;Light Break" style="edgeStyle=orthogonalEdgeStyle;curved=1;rounded=0;orthogonalLoop=1;jettySize=auto;html=1;entryX=0;entryY=0.5;entryDx=0;entryDy=0;startArrow=none;startFill=0;endArrow=classicThin;endFill=1;strokeColor=default;" edge="1" parent="1" source="c7QWI__lu-sEi3-24Plo-64" target="c7QWI__lu-sEi3-24Plo-77">
          <mxGeometry relative="1" as="geometry" />
        </mxCell>
        <mxCell id="c7QWI__lu-sEi3-24Plo-78" value="Turn Table&lt;br&gt;Saw&lt;br&gt;S&lt;sub&gt;6&lt;/sub&gt;" style="ellipse;whiteSpace=wrap;html=1;aspect=fixed;rotation=0;" vertex="1" parent="1">
          <mxGeometry x="320" y="320" width="80" height="80" as="geometry" />
        </mxCell>
        <mxCell id="c7QWI__lu-sEi3-24Plo-83" value="Oven&lt;br&gt;Bake&lt;br&gt;S&lt;sub&gt;&lt;font style=&quot;font-size: 10px&quot;&gt;7&lt;/font&gt;&lt;/sub&gt;" style="ellipse;whiteSpace=wrap;html=1;aspect=fixed;rotation=0;" vertex="1" parent="1">
          <mxGeometry x="500" y="80" width="80" height="80" as="geometry" />
        </mxCell>
        <mxCell id="c7QWI__lu-sEi3-24Plo-85" value="Falling edge&lt;br&gt;Door Close" style="edgeStyle=orthogonalEdgeStyle;curved=1;rounded=0;orthogonalLoop=1;jettySize=auto;html=1;entryX=0;entryY=0.5;entryDx=0;entryDy=0;fontSize=10;startArrow=none;startFill=0;endArrow=classicThin;endFill=1;strokeColor=default;" edge="1" parent="1" source="c7QWI__lu-sEi3-24Plo-77" target="c7QWI__lu-sEi3-24Plo-83">
          <mxGeometry relative="1" as="geometry" />
        </mxCell>
        <mxCell id="c7QWI__lu-sEi3-24Plo-89" value="Falling edge &lt;br&gt;Pusher" style="edgeStyle=orthogonalEdgeStyle;curved=1;rounded=0;orthogonalLoop=1;jettySize=auto;html=1;exitX=0.5;exitY=1;exitDx=0;exitDy=0;entryX=0.5;entryY=1;entryDx=0;entryDy=0;fontSize=10;startArrow=none;startFill=0;endArrow=classicThin;endFill=1;strokeColor=default;" edge="1" parent="1" source="c7QWI__lu-sEi3-24Plo-84" target="c7QWI__lu-sEi3-24Plo-65">
          <mxGeometry relative="1" as="geometry">
            <Array as="points">
              <mxPoint x="540" y="480" />
              <mxPoint x="180" y="480" />
            </Array>
          </mxGeometry>
        </mxCell>
        <mxCell id="c7QWI__lu-sEi3-24Plo-84" value="Turn Table&lt;br&gt;Unload&lt;br&gt;S&lt;sub&gt;&lt;font style=&quot;font-size: 10px&quot;&gt;9&lt;/font&gt;&lt;/sub&gt;" style="ellipse;whiteSpace=wrap;html=1;aspect=fixed;rotation=0;" vertex="1" parent="1">
          <mxGeometry x="500" y="320" width="80" height="80" as="geometry" />
        </mxCell>
        <mxCell id="c7QWI__lu-sEi3-24Plo-86" value="5s wait" style="edgeStyle=orthogonalEdgeStyle;curved=1;rounded=0;orthogonalLoop=1;jettySize=auto;html=1;fontSize=10;startArrow=none;startFill=0;endArrow=classicThin;endFill=1;strokeColor=default;" edge="1" parent="1" source="c7QWI__lu-sEi3-24Plo-78" target="c7QWI__lu-sEi3-24Plo-84">
          <mxGeometry relative="1" as="geometry" />
        </mxCell>
        <mxCell id="c7QWI__lu-sEi3-24Plo-147" style="edgeStyle=orthogonalEdgeStyle;curved=1;orthogonalLoop=1;jettySize=auto;html=1;fontSize=10;startArrow=none;startFill=0;endArrow=classicThin;endFill=1;startSize=0;endSize=6;sourcePerimeterSpacing=11;strokeColor=default;strokeWidth=1;exitX=0.494;exitY=-0.014;exitDx=0;exitDy=0;exitPerimeter=0;" edge="1" parent="1" source="c7QWI__lu-sEi3-24Plo-148">
          <mxGeometry relative="1" as="geometry">
            <mxPoint x="180" y="80" as="targetPoint" />
            <Array as="points">
              <mxPoint x="854" y="40" />
              <mxPoint x="180" y="40" />
            </Array>
          </mxGeometry>
        </mxCell>
        <mxCell id="c7QWI__lu-sEi3-24Plo-150" style="edgeStyle=orthogonalEdgeStyle;curved=1;orthogonalLoop=1;jettySize=auto;html=1;exitX=1;exitY=0.5;exitDx=0;exitDy=0;entryX=0;entryY=0.671;entryDx=0;entryDy=0;entryPerimeter=0;fontSize=10;startArrow=none;startFill=0;endArrow=none;endFill=0;startSize=0;endSize=6;sourcePerimeterSpacing=11;strokeColor=default;strokeWidth=1;" edge="1" parent="1" source="c7QWI__lu-sEi3-24Plo-91" target="c7QWI__lu-sEi3-24Plo-148">
          <mxGeometry relative="1" as="geometry" />
        </mxCell>
        <mxCell id="c7QWI__lu-sEi3-24Plo-91" value="Oven&lt;br&gt;Unload&lt;br&gt;S&lt;sub&gt;&lt;font style=&quot;font-size: 10px&quot;&gt;10&lt;/font&gt;&lt;/sub&gt;" style="ellipse;whiteSpace=wrap;html=1;aspect=fixed;rotation=0;" vertex="1" parent="1">
          <mxGeometry x="680" y="80" width="80" height="80" as="geometry" />
        </mxCell>
        <mxCell id="c7QWI__lu-sEi3-24Plo-92" value="10s wait" style="edgeStyle=orthogonalEdgeStyle;curved=1;rounded=0;orthogonalLoop=1;jettySize=auto;html=1;entryX=0;entryY=0.5;entryDx=0;entryDy=0;fontSize=10;startArrow=none;startFill=0;endArrow=classicThin;endFill=1;strokeColor=default;" edge="1" parent="1" target="c7QWI__lu-sEi3-24Plo-91">
          <mxGeometry relative="1" as="geometry">
            <mxPoint x="580" y="120" as="sourcePoint" />
          </mxGeometry>
        </mxCell>
        <mxCell id="c7QWI__lu-sEi3-24Plo-96" value="Vacuum&lt;br&gt;Reset&lt;br&gt;S&lt;sub&gt;2&lt;/sub&gt;" style="ellipse;whiteSpace=wrap;html=1;aspect=fixed;rotation=0;" vertex="1" parent="1">
          <mxGeometry x="140" y="200" width="80" height="80" as="geometry" />
        </mxCell>
        <mxCell id="c7QWI__lu-sEi3-24Plo-97" value="Vacuum&lt;br&gt;Move to &lt;br&gt;Oven&lt;br&gt;S&lt;sub&gt;5&lt;/sub&gt;" style="ellipse;whiteSpace=wrap;html=1;aspect=fixed;rotation=0;" vertex="1" parent="1">
          <mxGeometry x="320" y="200" width="80" height="80" as="geometry" />
        </mxCell>
        <mxCell id="c7QWI__lu-sEi3-24Plo-157" value="Falling edge&lt;br&gt;Vacuum lower" style="edgeStyle=orthogonalEdgeStyle;curved=1;sketch=0;orthogonalLoop=1;jettySize=auto;html=1;entryX=0;entryY=0.5;entryDx=0;entryDy=0;shadow=0;fontSize=10;startArrow=none;startFill=0;endArrow=classicThin;endFill=1;startSize=0;endSize=6;sourcePerimeterSpacing=0;targetPerimeterSpacing=0;strokeColor=default;strokeWidth=1;" edge="1" parent="1" source="c7QWI__lu-sEi3-24Plo-100" target="c7QWI__lu-sEi3-24Plo-156">
          <mxGeometry relative="1" as="geometry" />
        </mxCell>
        <mxCell id="c7QWI__lu-sEi3-24Plo-100" value="Vacuum&lt;br&gt;Load from Oven&lt;br&gt;S&lt;sub&gt;8&lt;/sub&gt;" style="ellipse;whiteSpace=wrap;html=1;aspect=fixed;rotation=0;" vertex="1" parent="1">
          <mxGeometry x="500" y="200" width="80" height="80" as="geometry" />
        </mxCell>
        <mxCell id="c7QWI__lu-sEi3-24Plo-108" value="Diverge Stages" style="text;html=1;align=center;verticalAlign=middle;resizable=0;points=[];autosize=1;strokeColor=none;fillColor=none;rotation=90;spacing=0;spacingRight=5;" vertex="1" parent="1">
          <mxGeometry x="70" y="230" width="100" height="20" as="geometry" />
        </mxCell>
        <mxCell id="c7QWI__lu-sEi3-24Plo-115" style="edgeStyle=orthogonalEdgeStyle;curved=1;rounded=0;orthogonalLoop=1;jettySize=auto;html=1;exitX=1;exitY=0.5;exitDx=0;exitDy=0;exitPerimeter=0;entryX=0;entryY=0.5;entryDx=0;entryDy=0;fontSize=10;startArrow=none;startFill=0;endArrow=classicThin;endFill=1;strokeColor=default;" edge="1" parent="1" source="c7QWI__lu-sEi3-24Plo-112" target="c7QWI__lu-sEi3-24Plo-100">
          <mxGeometry relative="1" as="geometry" />
        </mxCell>
        <mxCell id="c7QWI__lu-sEi3-24Plo-124" value="" style="group" vertex="1" connectable="0" parent="1">
          <mxGeometry x="440" y="220" width="50" height="40" as="geometry" />
        </mxCell>
        <mxCell id="c7QWI__lu-sEi3-24Plo-112" value="" style="verticalLabelPosition=bottom;shadow=0;dashed=0;align=center;html=1;verticalAlign=top;shape=mxgraph.electrical.logic_gates.logic_gate;operation=and;fontSize=10;numInputs=2;negating=0;noLabel=0;labelPadding=0;container=0;allowArrows=1;snapToPoint=0;fixDash=0;" vertex="1" parent="c7QWI__lu-sEi3-24Plo-124">
          <mxGeometry width="50" height="40" as="geometry" />
        </mxCell>
        <mxCell id="c7QWI__lu-sEi3-24Plo-123" value="And" style="text;html=1;resizable=0;autosize=1;align=center;verticalAlign=middle;points=[];fillColor=none;strokeColor=none;rounded=0;fontSize=10;rotation=90;" vertex="1" parent="c7QWI__lu-sEi3-24Plo-124">
          <mxGeometry x="10" y="10" width="30" height="20" as="geometry" />
        </mxCell>
        <mxCell id="c7QWI__lu-sEi3-24Plo-125" value="" style="group" vertex="1" connectable="0" parent="1">
          <mxGeometry x="260" y="220" width="50" height="40" as="geometry" />
        </mxCell>
        <mxCell id="c7QWI__lu-sEi3-24Plo-126" value="" style="verticalLabelPosition=bottom;shadow=0;dashed=0;align=center;html=1;verticalAlign=top;shape=mxgraph.electrical.logic_gates.logic_gate;operation=and;fontSize=10;numInputs=2;negating=0;noLabel=0;labelPadding=0;container=0;allowArrows=1;snapToPoint=0;fixDash=0;" vertex="1" parent="c7QWI__lu-sEi3-24Plo-125">
          <mxGeometry width="50" height="40" as="geometry" />
        </mxCell>
        <mxCell id="c7QWI__lu-sEi3-24Plo-127" value="And" style="text;html=1;resizable=0;autosize=1;align=center;verticalAlign=middle;points=[];fillColor=none;strokeColor=none;rounded=0;fontSize=10;rotation=90;" vertex="1" parent="c7QWI__lu-sEi3-24Plo-125">
          <mxGeometry x="10" y="10" width="30" height="20" as="geometry" />
        </mxCell>
        <mxCell id="c7QWI__lu-sEi3-24Plo-131" style="edgeStyle=orthogonalEdgeStyle;curved=1;rounded=0;orthogonalLoop=1;jettySize=auto;html=1;exitX=1;exitY=0.625;exitDx=0;exitDy=0;exitPerimeter=0;entryX=0;entryY=0.75;entryDx=0;entryDy=0;entryPerimeter=0;fontSize=10;startArrow=none;startFill=0;endArrow=classicThin;endFill=1;strokeColor=default;" edge="1" parent="1" source="c7QWI__lu-sEi3-24Plo-97" target="c7QWI__lu-sEi3-24Plo-112">
          <mxGeometry relative="1" as="geometry" />
        </mxCell>
        <mxCell id="c7QWI__lu-sEi3-24Plo-132" style="edgeStyle=orthogonalEdgeStyle;curved=1;rounded=0;orthogonalLoop=1;jettySize=auto;html=1;entryX=0;entryY=0.75;entryDx=0;entryDy=0;entryPerimeter=0;fontSize=10;startArrow=none;startFill=0;endArrow=classicThin;endFill=1;strokeColor=default;" edge="1" parent="1" target="c7QWI__lu-sEi3-24Plo-126">
          <mxGeometry relative="1" as="geometry">
            <mxPoint x="220" y="250" as="sourcePoint" />
          </mxGeometry>
        </mxCell>
        <mxCell id="c7QWI__lu-sEi3-24Plo-133" style="edgeStyle=orthogonalEdgeStyle;curved=1;rounded=0;orthogonalLoop=1;jettySize=auto;html=1;exitX=1;exitY=0.5;exitDx=0;exitDy=0;exitPerimeter=0;entryX=0;entryY=0.5;entryDx=0;entryDy=0;fontSize=10;startArrow=none;startFill=0;endArrow=classicThin;endFill=1;strokeColor=default;" edge="1" parent="1" source="c7QWI__lu-sEi3-24Plo-126" target="c7QWI__lu-sEi3-24Plo-97">
          <mxGeometry relative="1" as="geometry" />
        </mxCell>
        <mxCell id="c7QWI__lu-sEi3-24Plo-154" style="edgeStyle=orthogonalEdgeStyle;curved=1;sketch=0;orthogonalLoop=1;jettySize=auto;html=1;entryX=0;entryY=0.25;entryDx=0;entryDy=0;entryPerimeter=0;shadow=0;fontSize=10;startArrow=none;startFill=0;endArrow=classicThin;endFill=1;startSize=0;endSize=6;sourcePerimeterSpacing=0;targetPerimeterSpacing=0;strokeColor=default;strokeWidth=1;" edge="1" parent="1" source="c7QWI__lu-sEi3-24Plo-148" target="c7QWI__lu-sEi3-24Plo-112">
          <mxGeometry relative="1" as="geometry">
            <Array as="points">
              <mxPoint x="855" y="170" />
              <mxPoint x="410" y="170" />
              <mxPoint x="410" y="230" />
            </Array>
          </mxGeometry>
        </mxCell>
        <mxCell id="c7QWI__lu-sEi3-24Plo-148" value="Ref Switch&lt;br&gt;Oven Feeder Outside" style="text;html=1;align=center;verticalAlign=middle;resizable=0;points=[];autosize=1;strokeColor=none;fillColor=none;fontSize=10;rotation=0;" vertex="1" parent="1">
          <mxGeometry x="800" y="100" width="110" height="30" as="geometry" />
        </mxCell>
        <mxCell id="c7QWI__lu-sEi3-24Plo-159" value="Turn Table&lt;br&gt;In reset stage" style="edgeStyle=orthogonalEdgeStyle;curved=1;sketch=0;orthogonalLoop=1;jettySize=auto;html=1;exitX=1;exitY=0.5;exitDx=0;exitDy=0;entryX=0;entryY=0.5;entryDx=0;entryDy=0;shadow=0;fontSize=10;startArrow=none;startFill=0;endArrow=classicThin;endFill=1;startSize=0;endSize=6;sourcePerimeterSpacing=0;targetPerimeterSpacing=0;strokeColor=default;strokeWidth=1;" edge="1" parent="1" source="c7QWI__lu-sEi3-24Plo-156" target="c7QWI__lu-sEi3-24Plo-158">
          <mxGeometry relative="1" as="geometry" />
        </mxCell>
        <mxCell id="c7QWI__lu-sEi3-24Plo-156" value="Vacuum&lt;br&gt;Move to &lt;br&gt;Turn Table&lt;br&gt;S&lt;sub&gt;11&lt;/sub&gt;" style="ellipse;whiteSpace=wrap;html=1;aspect=fixed;rotation=0;" vertex="1" parent="1">
          <mxGeometry x="680" y="200" width="80" height="80" as="geometry" />
        </mxCell>
        <mxCell id="c7QWI__lu-sEi3-24Plo-158" value="Vacuum&lt;br&gt;Unload to Turn Table&lt;br&gt;S&lt;sub&gt;12&lt;/sub&gt;" style="ellipse;whiteSpace=wrap;html=1;aspect=fixed;rotation=0;" vertex="1" parent="1">
          <mxGeometry x="860" y="200" width="80" height="80" as="geometry" />
        </mxCell>
        <mxCell id="c7QWI__lu-sEi3-24Plo-165" value="&#xa;&#xa;&lt;span style=&quot;color: rgb(0, 0, 0); font-family: helvetica; font-size: 10px; font-style: normal; font-weight: 400; letter-spacing: normal; text-align: center; text-indent: 0px; text-transform: none; word-spacing: 0px; display: inline; float: none;&quot;&gt;Falling edge&lt;/span&gt;&lt;br style=&quot;color: rgb(0, 0, 0); font-family: helvetica; font-size: 10px; font-style: normal; font-weight: 400; letter-spacing: normal; text-align: center; text-indent: 0px; text-transform: none; word-spacing: 0px;&quot;&gt;&lt;span style=&quot;color: rgb(0, 0, 0); font-family: helvetica; font-size: 10px; font-style: normal; font-weight: 400; letter-spacing: normal; text-align: center; text-indent: 0px; text-transform: none; word-spacing: 0px; display: inline; float: none;&quot;&gt;Vacuum lower&lt;/span&gt;&#xa;&#xa;" style="edgeStyle=orthogonalEdgeStyle;curved=1;sketch=0;orthogonalLoop=1;jettySize=auto;html=1;exitX=0.5;exitY=1;exitDx=0;exitDy=0;entryX=0.5;entryY=1;entryDx=0;entryDy=0;shadow=0;fontSize=10;startArrow=none;startFill=0;endArrow=classicThin;endFill=1;startSize=0;endSize=6;sourcePerimeterSpacing=0;targetPerimeterSpacing=0;strokeColor=default;strokeWidth=1;spacing=0;spacingLeft=0;labelBackgroundColor=none;" edge="1" parent="1" source="c7QWI__lu-sEi3-24Plo-158" target="c7QWI__lu-sEi3-24Plo-96">
          <mxGeometry relative="1" as="geometry">
            <Array as="points">
              <mxPoint x="900" y="300" />
              <mxPoint x="180" y="300" />
            </Array>
            <mxPoint as="offset" />
          </mxGeometry>
        </mxCell>
        <mxCell id="c7QWI__lu-sEi3-24Plo-166" value="" style="group" vertex="1" connectable="0" parent="1">
          <mxGeometry x="260" y="340" width="50" height="40" as="geometry" />
        </mxCell>
        <mxCell id="c7QWI__lu-sEi3-24Plo-167" value="" style="verticalLabelPosition=bottom;shadow=0;dashed=0;align=center;html=1;verticalAlign=top;shape=mxgraph.electrical.logic_gates.logic_gate;operation=and;fontSize=10;numInputs=2;negating=0;noLabel=0;labelPadding=0;container=0;allowArrows=1;snapToPoint=0;fixDash=0;" vertex="1" parent="c7QWI__lu-sEi3-24Plo-166">
          <mxGeometry width="50" height="40" as="geometry" />
        </mxCell>
        <mxCell id="c7QWI__lu-sEi3-24Plo-168" value="And" style="text;html=1;resizable=0;autosize=1;align=center;verticalAlign=middle;points=[];fillColor=none;strokeColor=none;rounded=0;fontSize=10;rotation=90;" vertex="1" parent="c7QWI__lu-sEi3-24Plo-166">
          <mxGeometry x="10" y="10" width="30" height="20" as="geometry" />
        </mxCell>
        <mxCell id="c7QWI__lu-sEi3-24Plo-170" value="&#xa;&#xa;&lt;span style=&quot;color: rgb(0, 0, 0); font-style: normal; font-weight: 400; letter-spacing: normal; text-indent: 0px; text-transform: none; word-spacing: 0px; font-family: helvetica; font-size: 11px; background-color: rgb(255, 255, 255); display: inline; float: none;&quot;&gt;Rising edge&lt;/span&gt;&lt;br style=&quot;color: rgb(0, 0, 0); font-style: normal; font-weight: 400; letter-spacing: normal; text-indent: 0px; text-transform: none; word-spacing: 0px; background-color: rgb(248, 249, 250); font-family: helvetica; font-size: 11px;&quot;&gt;&lt;span style=&quot;color: rgb(0, 0, 0); font-style: normal; font-weight: 400; letter-spacing: normal; text-indent: 0px; text-transform: none; word-spacing: 0px; font-family: helvetica; font-size: 11px; background-color: rgb(255, 255, 255); display: inline; float: none;&quot;&gt;Ref Switch&lt;/span&gt;&lt;br style=&quot;color: rgb(0, 0, 0); font-style: normal; font-weight: 400; letter-spacing: normal; text-indent: 0px; text-transform: none; word-spacing: 0px; background-color: rgb(248, 249, 250); font-family: helvetica; font-size: 11px;&quot;&gt;&lt;span style=&quot;color: rgb(0, 0, 0); font-style: normal; font-weight: 400; letter-spacing: normal; text-indent: 0px; text-transform: none; word-spacing: 0px; font-family: helvetica; font-size: 11px; background-color: rgb(255, 255, 255); display: inline; float: none;&quot;&gt;TurnTable&lt;/span&gt;&#xa;&#xa;" style="edgeStyle=orthogonalEdgeStyle;curved=1;sketch=0;orthogonalLoop=1;jettySize=auto;html=1;exitX=1.001;exitY=0.624;exitDx=0;exitDy=0;exitPerimeter=0;entryX=0;entryY=0.75;entryDx=0;entryDy=0;entryPerimeter=0;shadow=0;labelBackgroundColor=none;fontSize=10;startArrow=none;startFill=0;endArrow=classicThin;endFill=1;startSize=0;endSize=6;sourcePerimeterSpacing=0;targetPerimeterSpacing=0;strokeColor=default;strokeWidth=1;align=center;verticalAlign=top;spacingTop=-7;spacingLeft=6;" edge="1" parent="1" source="c7QWI__lu-sEi3-24Plo-65" target="c7QWI__lu-sEi3-24Plo-167">
          <mxGeometry x="-0.0039" y="10" relative="1" as="geometry">
            <mxPoint as="offset" />
          </mxGeometry>
        </mxCell>
        <mxCell id="c7QWI__lu-sEi3-24Plo-172" style="edgeStyle=orthogonalEdgeStyle;curved=1;sketch=0;orthogonalLoop=1;jettySize=auto;html=1;exitX=0;exitY=0.25;exitDx=0;exitDy=0;exitPerimeter=0;shadow=0;labelBackgroundColor=none;fontSize=10;startArrow=none;startFill=0;endArrow=classicThin;endFill=1;startSize=0;endSize=6;sourcePerimeterSpacing=0;targetPerimeterSpacing=0;strokeColor=default;strokeWidth=1;entryX=0;entryY=0.25;entryDx=0;entryDy=0;entryPerimeter=0;" edge="1" parent="1" target="c7QWI__lu-sEi3-24Plo-167">
          <mxGeometry relative="1" as="geometry">
            <mxPoint x="540.0000000000002" y="300" as="sourcePoint" />
          </mxGeometry>
        </mxCell>
        <mxCell id="c7QWI__lu-sEi3-24Plo-174" style="edgeStyle=orthogonalEdgeStyle;curved=1;sketch=0;orthogonalLoop=1;jettySize=auto;html=1;exitX=1;exitY=0.5;exitDx=0;exitDy=0;exitPerimeter=0;entryX=0;entryY=0.5;entryDx=0;entryDy=0;shadow=0;labelBackgroundColor=none;fontSize=10;startArrow=none;startFill=0;endArrow=classicThin;endFill=1;startSize=0;endSize=6;sourcePerimeterSpacing=0;targetPerimeterSpacing=0;strokeColor=default;strokeWidth=1;" edge="1" parent="1" source="c7QWI__lu-sEi3-24Plo-167" target="c7QWI__lu-sEi3-24Plo-78">
          <mxGeometry relative="1" as="geometry" />
        </mxCell>
      </root>
    </mxGraphModel>
  </diagram>
</mxfile>
